# xmcd CD database file
#
# Track frame offsets:
#	150
#	20185
#	39295
#	55268
#	79860
#	98273
#	123928
#	146358
#	167778
#	194273
#
# Disc length: 2703 seconds
#
# Revision: 0
# Processed by: cddbd v1.5.1PL2 Copyright (c) Steve Scherf et al.
# Submitted via: CDex 1.50Beta6
#
DISCID=790a8d0a
DTITLE=拝郷 メイコ - 日々是青色
DYEAR=2005
DGENRE=JPop
TTITLE0=いちりん
TTITLE1=ふと
TTITLE2=どれどれの唄（Ａｌｂｕｍ　ｖｅｒｓｉｏｎ｜読売新聞ＣＭソング）
TTITLE3=冬入り
TTITLE4=蒼い花（映画「変身」主題歌）
TTITLE5=変身願望
TTITLE6=君と海
TTITLE7=帰り道
TTITLE8=ものがたり
TTITLE9=夏の神様
EXTD=YEAR: 2005
EXTT0=
EXTT1=
EXTT2=
EXTT3=
EXTT4=
EXTT5=
EXTT6=
EXTT7=
EXTT8=
EXTT9=
PLAYORDER=
